<svg xmlns="http://www.w3.org/2000/svg" viewBox="0 0 242.67 48.8"><defs><style>.cls-1{fill:#061146;}.cls-2{fill:#368d79;}</style></defs><title>enegix-logo-c</title><g id="Layer_2" data-name="Layer 2"><g id="Layer_1-2" data-name="Layer 1"><g id="Layer_1-2-2" data-name="Layer 1-2"><path class="cls-1" d="M85.4,11.14H70v9.22H85v5.45H70V38.64H85.4v5.44H64.25V5.69H85.4Z"/><path class="cls-1" d="M91.77,44.08v-41l28,29.29V5.69h5.8V46.42l-28-29.22V44.08Z"/><path class="cls-1" d="M154.68,11.14H139.29v9.22h14.94v5.45H139.29V38.64h15.39v5.44H133.49V5.69h21.19Z"/><path class="cls-1" d="M180.76,24.08h15.86v1.27a26.09,26.09,0,0,1-1,7.66,16.4,16.4,0,0,1-3.35,5.77,17.43,17.43,0,0,1-13.6,6A18.7,18.7,0,0,1,164.86,39a19.33,19.33,0,0,1-5.74-14A19.26,19.26,0,0,1,165,10.8a20.14,20.14,0,0,1,22.63-4,24,24,0,0,1,7.34,6l-4.13,4q-4.73-6.3-11.51-6.3a13.74,13.74,0,0,0-10.22,4.21,14,14,0,0,0-4.13,10.34,13.59,13.59,0,0,0,4.6,10.57,13.74,13.74,0,0,0,9.32,3.85,11.63,11.63,0,0,0,7.69-2.88,10.25,10.25,0,0,0,3.8-7h-9.57Z"/><path class="cls-1" d="M208.4,5.69V44.08h-5.79V5.69Z"/><path class="cls-1" d="M224.4,24,213.85,5.69h6.55l7.33,13,7.71-13h6.64L231.05,24l11.62,20.06h-6.49l-8.51-14.69-8.75,14.69H212.4Z"/><path class="cls-2" d="M10.85,3.8A6.79,6.79,0,0,1,17.37,0H36.8A6.81,6.81,0,0,1,43.35,3.8l9.72,16.78a6.85,6.85,0,0,1,0,7.66L43.35,45a6.77,6.77,0,0,1-6.51,3.76H17.4A6.77,6.77,0,0,1,10.89,45L1.17,28.24a6.84,6.84,0,0,1,0-7.65L10.89,3.8ZM11.74,15l-1,1.63a1.28,1.28,0,0,0,.06,1.47l5.3,9.11c.27.44.76.34,1.12-.22l.8-1.3a1.35,1.35,0,0,0,0-1.56l-5.26-9c-.25-.44-.69-.72-1-.16ZM14.39,4.24l9.35,16.34a6.9,6.9,0,0,1,0,7.69L14.37,44.6a4,4,0,0,0,3,1c1.82,0,3-.32,3.91-2.12L31,26.5c.95-1.47.77-2.71-.06-4.28L23.26,8.75H26.9l6.77,11.83a6.94,6.94,0,0,1,0,7.69L24.05,45.05h0c-.1.2-.21.4-.33.59h4a3.59,3.59,0,0,0,2.92-2.09l9.72-17c1-1.59.73-2.72,0-4.29q-3.83-6.75-7.64-13.49H36.3L43,20.58a6.94,6.94,0,0,1,0,7.69c-3.24,5.64-6.49,12-10,17.38h3.86a3.71,3.71,0,0,0,3.68-2.2l9.79-16.94a3.78,3.78,0,0,0,0-4.29q-4.95-8.49-9.79-16.95a3.82,3.82,0,0,0-3.75-2.1H17.44a3.69,3.69,0,0,0-3.06,1ZM11.74,40.31a.8.8,0,0,0,1.06.37.83.83,0,0,0,.37-.37l.88-1.48a2.36,2.36,0,0,0,0-2l-1-1.72L7.05,25c-.46-.78-.6-1.16-.15-1.88l.78-1.26c.35-.57.89-.66,1.11-.22l6.41,11c.66,1.14,1.57,1.35,2.35.1L21,26.59a3.57,3.57,0,0,0,0-4.37L14.3,10.43c-1.15-1.82-2.36-1.82-3.65,0,0,0-5.3,9.1-6.85,11.87a3.91,3.91,0,0,0,0,4.3Z"/></g></g></g></svg>