<?xml version="1.0" encoding="UTF-8"?>
<svg id="Layer_1" xmlns="http://www.w3.org/2000/svg" xmlns:xlink="http://www.w3.org/1999/xlink" viewBox="0 0 293.96 46.49">
  <defs>
    <style>
      .cls-1 {
        fill: url(#linear-gradient-2);
      }

      .cls-2 {
        fill: #fff;
      }

      .cls-3 {
        fill: url(#linear-gradient-3);
      }

      .cls-4 {
        isolation: isolate;
      }

      .cls-5 {
        fill: url(#linear-gradient);
      }
    </style>
    <linearGradient id="linear-gradient" x1="7.33" y1="22.16" x2="43.12" y2="22.16" gradientTransform="translate(0 52.01) scale(1 -1)" gradientUnits="userSpaceOnUse">
      <stop offset="0" stop-color="#513cf3"/>
      <stop offset="1" stop-color="#3f28f4"/>
    </linearGradient>
    <linearGradient id="linear-gradient-2" x1="14.66" y1="35.5" x2="50.45" y2="35.5" gradientTransform="translate(0 52.01) scale(1 -1)" gradientUnits="userSpaceOnUse">
      <stop offset="0" stop-color="#513cf3"/>
      <stop offset="1" stop-color="#3f28f4"/>
    </linearGradient>
    <linearGradient id="linear-gradient-3" x1="0" y1="35.21" x2="32.96" y2="35.21" gradientTransform="translate(0 52.01) scale(1 -1)" gradientUnits="userSpaceOnUse">
      <stop offset="0" stop-color="#513cf3"/>
      <stop offset="1" stop-color="#3f28f4"/>
    </linearGradient>
  </defs>
  <g>
    <path class="cls-5" d="M16.14,46.47c-.35-.04-.7-.09-1.06-.13-3.17-.44-5.44-2.13-6.85-4.99-.61-1.24-.91-2.55-.9-3.93,0-.33.02-.65.06-.98.04-.4.18-.51.58-.5,1,0,2,.03,3,.05.15,0,.31,0,.46,0,.35,0,.42.11.38.46-.05.44-.12.89-.11,1.34.01,1.97,1.65,3.87,3.59,4.17.45.07.91.11,1.37.11,5.75,0,11.49,0,17.24,0,1.22,0,2.35-.28,3.29-1.11.91-.79,1.36-1.81,1.54-2.98.16-1.03-.15-1.96-.65-2.84-2.6-4.55-5.2-9.1-7.8-13.64-.38-.66-.75-1.31-1.12-1.97-.77-1.34-1.91-2.13-3.44-2.34-.11-.02-.21-.05-.35-.08.41-.72.79-1.4,1.18-2.08.28-.49.56-.97.84-1.46.21-.37.31-.41.72-.26,2.07.75,3.66,2.08,4.76,3.99,2.52,4.41,5.05,8.81,7.56,13.22.67,1.17,1.37,2.33,1.92,3.56,1.22,2.73.96,5.42-.52,7.98-1.43,2.47-3.62,3.91-6.45,4.26-1.11.14-2.24.08-3.37.11-.14,0-.28.04-.42.06h-15.46v-.02Z"/>
    <path class="cls-1" d="M50.44,25.18c-.07.41-.12.82-.2,1.23-.63,3.04-2.36,5.21-5.19,6.51-.25.11-.48.15-.64-.13-.65-1.17-1.29-2.34-1.96-3.55.12-.05.22-.09.32-.12,1.75-.59,2.88-1.75,3.23-3.58.21-1.09,0-2.14-.55-3.1-2-3.52-4-7.03-6.01-10.54-1-1.76-1.99-3.52-3.02-5.26-1.73-2.94-5.7-3.08-7.58-.23-.91,1.38-1.69,2.84-2.51,4.28-2.23,3.89-4.45,7.78-6.68,11.68-.75,1.31-.89,2.67-.3,4.08.15.36.1.43-.3.43h-3.68c-.34,0-.48-.13-.55-.53-.32-1.89-.18-3.74.73-5.45,1.04-1.95,2.15-3.85,3.24-5.77,2.11-3.69,4.2-7.39,6.38-11.04,1.37-2.29,3.46-3.64,6.11-3.97,3.92-.49,6.94,1.03,8.93,4.44,3.06,5.25,6.05,10.54,9.07,15.82.64,1.12,1.01,2.34,1.1,3.63,0,.09.05.17.07.26v.92h-.01Z"/>
    <path class="cls-3" d="M21.39,5.77c-.46-.28-.89-.53-1.32-.79-2.25-1.38-4.95-.36-6.11,1.68-2.75,4.84-5.52,9.67-8.28,14.5-.27.48-.56.95-.81,1.44-1.05,2.09-.5,4.42,1.37,5.81.77.57,1.65.83,2.61.83h16.41c.75,0,1.51.02,2.26-.07,1.28-.14,2.27-.79,3.04-1.82.05-.07.11-.15.18-.24.06.08.11.13.15.19.65,1.12,1.3,2.25,1.95,3.37.19.33.16.53-.13.78-1.33,1.15-2.85,1.92-4.62,2.08-1.11.1-2.23.08-3.34.08-4.84,0-9.67,0-14.51,0-1.19,0-2.4.05-3.56-.26-2.93-.79-4.94-2.63-6.04-5.43-.95-2.41-.85-4.84.35-7.14,1.05-2.02,2.22-3.98,3.34-5.95,1.94-3.4,3.88-6.79,5.82-10.18C11.57,2.18,13.63.57,16.46.13c2.41-.38,4.68.09,6.65,1.61.4.3.42.42.17.84-.57.98-1.15,1.95-1.73,2.93-.05.08-.1.15-.17.25h.01Z"/>
  </g>
  <g class="cls-4">
    <g class="cls-4">
      <path class="cls-2" d="M67.06,8.31v1.92h-3.51v9.94h-2.64v-9.94h-3.51v-1.92h9.66Z"/>
      <path class="cls-2" d="M79.91,8.31v11.87h-2.64v-5.05h-5.64v5.05h-2.64v-11.87h2.64v4.88h5.64v-4.88h2.64Z"/>
      <path class="cls-2" d="M85.15,10.23v2.97h4.43v1.89h-4.43v3.15h5v1.94h-7.64v-11.88h7.64v1.94h-5Z"/>
      <path class="cls-2" d="M106.34,15.09c.48.54.72,1.17.72,1.87,0,.63-.17,1.19-.52,1.67-.35.48-.85.86-1.5,1.13s-1.43.41-2.32.41h-5.68v-11.87h5.43c.89,0,1.66.13,2.31.39.65.26,1.14.62,1.47,1.09.33.46.5.99.5,1.58,0,.69-.2,1.27-.61,1.73s-.95.79-1.63.99c.74.12,1.35.46,1.83,1ZM99.68,13.2h2.42c.63,0,1.11-.13,1.45-.38.34-.25.51-.62.51-1.1s-.17-.84-.51-1.1c-.34-.26-.82-.39-1.45-.39h-2.42v2.97ZM103.84,17.83c.36-.27.54-.66.54-1.16s-.19-.91-.57-1.2c-.38-.29-.89-.43-1.53-.43h-2.6v3.2h2.66c.64,0,1.14-.14,1.5-.41Z"/>
      <path class="cls-2" d="M111.81,18.29h4.34v1.89h-6.98v-11.87h2.64v9.98Z"/>
      <path class="cls-2" d="M120.55,19.51c-1.03-.52-1.85-1.24-2.45-2.17-.6-.92-.91-1.97-.91-3.14s.3-2.2.91-3.12c.6-.92,1.42-1.65,2.45-2.17,1.03-.52,2.16-.78,3.4-.78s2.38.26,3.41.78,1.84,1.24,2.43,2.17.9,1.96.9,3.12-.3,2.21-.9,3.14c-.6.92-1.41,1.65-2.44,2.17-1.03.52-2.16.78-3.4.78s-2.37-.26-3.4-.78ZM126.04,17.68c.6-.32,1.07-.78,1.41-1.39s.51-1.3.51-2.09-.17-1.49-.51-2.08c-.34-.6-.81-1.05-1.41-1.37-.6-.32-1.3-.48-2.1-.48s-1.49.16-2.1.48c-.61.32-1.08.77-1.42,1.37-.34.59-.51,1.29-.51,2.08s.17,1.49.51,2.09.81,1.06,1.42,1.39c.61.32,1.31.48,2.1.48s1.49-.16,2.1-.48Z"/>
      <path class="cls-2" d="M132.88,11.09c.58-.92,1.38-1.64,2.4-2.16,1.01-.52,2.15-.77,3.41-.77,1.47,0,2.76.34,3.87,1.02,1.11.68,1.88,1.62,2.32,2.82h-3.04c-.3-.57-.73-.99-1.27-1.28-.55-.28-1.18-.42-1.9-.42-.77,0-1.45.16-2.05.48-.6.32-1.06.78-1.4,1.37-.33.59-.5,1.28-.5,2.07s.17,1.47.5,2.07c.33.59.8,1.05,1.4,1.38.6.32,1.28.48,2.05.48.72,0,1.35-.14,1.9-.43.55-.29.97-.72,1.27-1.28h3.04c-.44,1.21-1.21,2.16-2.31,2.83-1.1.67-2.39,1.01-3.88,1.01-1.26,0-2.39-.26-3.41-.77s-1.81-1.23-2.4-2.15c-.58-.92-.88-1.96-.88-3.13s.29-2.21.88-3.14Z"/>
      <path class="cls-2" d="M154.57,20.18l-4.79-5.29v5.29h-2.64v-11.87h2.64v5.32l4.79-5.32h3.19l-5.43,5.88,5.59,5.98h-3.34Z"/>
      <path class="cls-2" d="M159.89,11.09c.58-.92,1.38-1.64,2.4-2.16,1.01-.52,2.15-.77,3.41-.77,1.47,0,2.76.34,3.87,1.02,1.11.68,1.88,1.62,2.32,2.82h-3.04c-.3-.57-.73-.99-1.27-1.28-.55-.28-1.18-.42-1.9-.42-.77,0-1.45.16-2.05.48-.6.32-1.06.78-1.4,1.37-.33.59-.5,1.28-.5,2.07s.17,1.47.5,2.07c.33.59.8,1.05,1.4,1.38.6.32,1.28.48,2.05.48.72,0,1.35-.14,1.9-.43.55-.29.97-.72,1.27-1.28h3.04c-.44,1.21-1.21,2.16-2.31,2.83-1.1.67-2.39,1.01-3.88,1.01-1.26,0-2.39-.26-3.41-.77s-1.81-1.23-2.4-2.15c-.58-.92-.88-1.96-.88-3.13s.29-2.21.88-3.14Z"/>
      <path class="cls-2" d="M185.07,8.31v11.87h-2.64v-5.05h-5.64v5.05h-2.64v-11.87h2.64v4.88h5.64v-4.88h2.64Z"/>
      <path class="cls-2" d="M195.75,17.91h-5.25l-.87,2.26h-2.77l4.74-11.88h3.08l4.74,11.88h-2.79l-.87-2.26ZM195.03,16.01l-1.91-4.96-1.91,4.96h3.81Z"/>
      <path class="cls-2" d="M203.82,8.31v11.87h-2.64v-11.87h2.64Z"/>
      <path class="cls-2" d="M217.69,20.18h-2.64l-5.98-8.14v8.14h-2.64v-11.88h2.64l5.98,8.16v-8.16h2.64v11.88Z"/>
      <path class="cls-2" d="M225.02,11.09c.58-.92,1.38-1.64,2.4-2.16,1.01-.52,2.15-.77,3.41-.77,1.47,0,2.76.34,3.87,1.02,1.11.68,1.88,1.62,2.32,2.82h-3.04c-.3-.57-.73-.99-1.27-1.28-.55-.28-1.18-.42-1.9-.42-.77,0-1.45.16-2.05.48-.6.32-1.06.78-1.4,1.37-.33.59-.5,1.28-.5,2.07s.17,1.47.5,2.07c.33.59.8,1.05,1.4,1.38.6.32,1.28.48,2.05.48.72,0,1.35-.14,1.9-.43.55-.29.97-.72,1.27-1.28h3.04c-.44,1.21-1.21,2.16-2.31,2.83-1.1.67-2.39,1.01-3.88,1.01-1.26,0-2.39-.26-3.41-.77s-1.81-1.23-2.4-2.15c-.58-.92-.88-1.96-.88-3.13s.29-2.21.88-3.14Z"/>
      <path class="cls-2" d="M241.92,10.23v2.97h4.43v1.89h-4.43v3.15h5v1.94h-7.64v-11.88h7.64v1.94h-5Z"/>
      <path class="cls-2" d="M260.58,20.18h-2.64l-5.98-8.14v8.14h-2.64v-11.88h2.64l5.98,8.16v-8.16h2.64v11.88Z"/>
      <path class="cls-2" d="M272.15,8.31v1.92h-3.51v9.94h-2.64v-9.94h-3.51v-1.92h9.66Z"/>
      <path class="cls-2" d="M276.72,10.23v2.97h4.43v1.89h-4.43v3.15h5v1.94h-7.64v-11.88h7.64v1.94h-5Z"/>
      <path class="cls-2" d="M290.91,20.18l-2.91-4.62h-1.25v4.62h-2.64v-11.87h4.94c1.02,0,1.89.16,2.6.48.72.32,1.25.76,1.61,1.31.36.55.54,1.16.54,1.84,0,.78-.25,1.49-.75,2.12-.5.63-1.25,1.06-2.25,1.3l3.15,4.81h-3.06ZM286.76,13.77h2.21c.72,0,1.25-.16,1.6-.47.35-.31.53-.75.53-1.3s-.18-.97-.53-1.27c-.35-.3-.89-.45-1.6-.45h-2.21v3.48Z"/>
    </g>
  </g>
  <g class="cls-4">
    <g class="cls-4">
      <path class="cls-2" d="M65.24,38.16h-6l-1.15,2.82h-1.4l4.81-11.73h1.49l4.79,11.73h-1.4l-1.15-2.82ZM64.85,37.18l-2.6-6.43-2.6,6.43h5.21Z"/>
      <path class="cls-2" d="M77.96,35.87c.52.55.77,1.2.77,1.94,0,.6-.17,1.14-.5,1.62-.33.48-.82.86-1.46,1.14-.64.28-1.41.42-2.3.42h-4.57v-11.88h4.43c1.33,0,2.35.28,3.05.83.7.56,1.05,1.28,1.05,2.16,0,.74-.22,1.33-.66,1.79-.44.46-1.01.78-1.7.96.74.12,1.37.46,1.89,1.02ZM71.22,34.35h3.08c.89,0,1.58-.19,2.07-.57.48-.38.73-.9.73-1.57s-.24-1.17-.73-1.55c-.48-.37-1.19-.56-2.12-.56h-3.02v4.25ZM76.61,39.37c.53-.41.8-.97.8-1.68s-.28-1.28-.84-1.71c-.56-.42-1.31-.64-2.25-.64h-3.09v4.64h3.15c.96,0,1.7-.2,2.24-.61Z"/>
      <path class="cls-2" d="M82.43,29.1v7.48c0,1.18.31,2.05.93,2.62s1.47.85,2.56.85,1.93-.28,2.54-.84c.61-.56.92-1.44.92-2.63v-7.48h1.32v7.46c0,1.51-.44,2.64-1.33,3.4-.89.76-2.04,1.14-3.46,1.14s-2.58-.38-3.46-1.14c-.89-.76-1.33-1.89-1.33-3.4v-7.46h1.32Z"/>
      <path class="cls-2" d="M106.47,29.82c1.04.48,1.84,1.16,2.4,2.06.55.9.83,1.96.83,3.2s-.28,2.28-.83,3.17c-.55.89-1.35,1.57-2.4,2.04-1.04.47-2.3.71-3.76.71h-3.91v-11.88h3.91c1.46,0,2.71.24,3.76.71ZM106.92,38.7c.96-.87,1.44-2.08,1.44-3.63s-.48-2.79-1.44-3.66c-.96-.88-2.36-1.32-4.2-1.32h-2.58v9.91h2.58c1.84,0,3.24-.43,4.2-1.3Z"/>
      <path class="cls-2" d="M121.93,29.1v11.88h-1.32v-5.56h-7.15v5.56h-1.32v-11.88h1.32v5.34h7.15v-5.34h1.32Z"/>
      <path class="cls-2" d="M132.59,38.16h-6l-1.15,2.82h-1.4l4.81-11.73h1.49l4.79,11.73h-1.4l-1.15-2.82ZM132.19,37.18l-2.6-6.43-2.6,6.43h5.21Z"/>
      <path class="cls-2" d="M145.31,35.87c.52.55.77,1.2.77,1.94,0,.6-.17,1.14-.5,1.62-.33.48-.82.86-1.46,1.14-.64.28-1.41.42-2.3.42h-4.57v-11.88h4.43c1.33,0,2.35.28,3.05.83.7.56,1.05,1.28,1.05,2.16,0,.74-.22,1.33-.66,1.79s-1.01.78-1.7.96c.74.12,1.37.46,1.89,1.02ZM138.57,34.35h3.08c.89,0,1.58-.19,2.07-.57s.73-.9.73-1.57-.24-1.17-.73-1.55-1.19-.56-2.12-.56h-3.02v4.25ZM143.96,39.37c.53-.41.8-.97.8-1.68s-.28-1.28-.84-1.71c-.56-.42-1.31-.64-2.25-.64h-3.09v4.64h3.15c.96,0,1.7-.2,2.24-.61Z"/>
      <path class="cls-2" d="M149.83,29.1v11.88h-1.32v-11.88h1.32Z"/>
    </g>
  </g>
</svg>