<?xml version="1.0" encoding="utf-8"?>
<!-- Generator: Adobe Illustrator 26.3.1, SVG Export Plug-In . SVG Version: 6.00 Build 0)  -->
<svg version="1.1" xmlns="http://www.w3.org/2000/svg" xmlns:xlink="http://www.w3.org/1999/xlink" x="0px" y="0px"
	 viewBox="0 0 501.6551 146.2201" style="enable-background:new 0 0 501.6551 146.2201;" xml:space="preserve">
<style type="text/css">
	.st0{display:none;fill:#2F4858;}
	.st1{display:none;opacity:0.7;}
	.st2{display:inline;fill:#E5087E;}
	.st3{display:none;}
	.st4{display:inline;fill:#2F4858;}
	.st5{display:none;fill:url(#SVGID_1_);}
	.st6{fill:#212323;}
	.st7{fill:#FBFBFB;}
	.st8{fill:url(#SVGID_00000182487148680723777820000016740545831402578089_);}
	.st9{fill:url(#SVGID_00000016769982265911685180000014070169558588970898_);}
	.st10{fill:url(#SVGID_00000070093939239869435800000013444481931038012039_);}
	.st11{fill:url(#SVGID_00000018947467659245198590000000992081207356809884_);}
	.st12{fill:url(#SVGID_00000158027126402258613460000015998181572095978670_);}
	.st13{fill:url(#SVGID_00000002353165640359675200000014488219031745213868_);}
	.st14{fill:url(#SVGID_00000175316842288828346860000000633187136811231914_);}
	.st15{fill:url(#SVGID_00000145033572901992830410000014306285675630471307_);}
	.st16{fill:url(#SVGID_00000060024751802127028070000008729716042421481145_);}
	.st17{fill:#1C2B35;}
	.st18{fill:url(#SVGID_00000072272833134392944370000015053539840403203256_);}
	.st19{fill:url(#SVGID_00000005246805983257020440000003008152502886660773_);}
	.st20{fill:url(#SVGID_00000147916396758934892730000012959583215365964209_);}
	.st21{fill:url(#SVGID_00000066490884877605862220000005026986165463689389_);}
	.st22{fill:url(#SVGID_00000096026981759296183080000015503089081728677557_);}
	.st23{fill:url(#SVGID_00000095328890398076778780000001796527880271116947_);}
	.st24{fill:url(#SVGID_00000152230390683199406470000014719742529396821942_);}
	.st25{fill:url(#SVGID_00000053524114888736493040000001761223157354393760_);}
	.st26{fill:url(#SVGID_00000039121885295190414750000006645866579169794442_);}
	.st27{fill:url(#SVGID_00000054258131896971616350000008154918172557539719_);}
	.st28{fill:url(#SVGID_00000047024025631882863760000012646799397152682666_);}
	.st29{fill:url(#SVGID_00000016073899850674731870000001747575612140526980_);}
	.st30{fill:url(#SVGID_00000008146142777179480000000016749694201704458431_);}
	.st31{fill:url(#SVGID_00000096763946911582738280000016321328610409279676_);}
	.st32{fill:url(#SVGID_00000139274484347780690620000018380632421353742209_);}
	.st33{fill:url(#SVGID_00000031889877482851038440000014407801590792264594_);}
	.st34{fill:url(#SVGID_00000132807409979214181300000008520018451156099729_);}
	.st35{fill:url(#SVGID_00000038390849205308054500000013688618112565085118_);}
	.st36{fill:url(#SVGID_00000073697558417069906800000003553229342821370254_);}
	.st37{fill:url(#SVGID_00000080174139750227551420000006701578657054825633_);}
	.st38{fill:url(#SVGID_00000152250641599325145960000012832022119047171248_);}
	.st39{fill:url(#SVGID_00000049197998290662319680000017251524645848266377_);}
	.st40{fill:url(#SVGID_00000041264280820297828120000005934322033089767355_);}
	.st41{fill:url(#SVGID_00000073720070656616937430000017679532308052206982_);}
	.st42{fill:url(#SVGID_00000091725129960939214560000009453264965383849882_);}
	.st43{fill:url(#SVGID_00000085960895468380032110000011085961704449384834_);}
	.st44{fill:url(#SVGID_00000041279196860005746230000004488722682405030287_);}
</style>
<g id="Warstwa_1">
	<g>
		<g>
			<g>
				<linearGradient id="SVGID_1_" gradientUnits="userSpaceOnUse" x1="66.456" y1="100.6955" x2="66.456" y2="70.2173">
					<stop  offset="0" style="stop-color:#F9B363"/>
					<stop  offset="1" style="stop-color:#EF8135"/>
				</linearGradient>
				<path style="fill:url(#SVGID_1_);" d="M55.061,100.0218l26.6553-42.915c0.4824-0.7925,0.4023-1.6963-0.0322-2.3813
					c-4.3701,2.0674-13.9668,6.2593-15.5029,3.9863c-0.626-0.9263-15.3145,13.0874-15.3145,13.0874v27.0186
					c0,0.5737,0.1875,1.0581,0.4878,1.4316C52.2524,101.3592,54.1587,101.475,55.061,100.0218z"/>
				
					<linearGradient id="SVGID_00000067953721725356977470000011483109551915804572_" gradientUnits="userSpaceOnUse" x1="57.3372" y1="62.7259" x2="112.4225" y2="62.7259">
					<stop  offset="0" style="stop-color:#F9B363"/>
					<stop  offset="1" style="stop-color:#EF8135"/>
				</linearGradient>
				<path style="fill:url(#SVGID_00000067953721725356977470000011483109551915804572_);" d="M58.6416,71.7899l23.229-16.6968
					c-0.3203-0.7964-1.0674-1.4082-2.0449-1.4258L66.6958,53.662H50.8667v18.1279H58.6416z"/>
				
					<linearGradient id="SVGID_00000022538821238894483540000017565903719735666321_" gradientUnits="userSpaceOnUse" x1="43.8577" y1="31.0281" x2="43.8577" y2="85.3147">
					<stop  offset="0" style="stop-color:#F9B363"/>
					<stop  offset="1" style="stop-color:#EF8135"/>
				</linearGradient>
				<path style="fill:url(#SVGID_00000022538821238894483540000017565903719735666321_);" d="M58.6415,29.7721v42.018h-27.3
					c-1.7811,0-2.8647-1.9618-1.9163-3.4694l25.0121-39.761C55.6535,26.6263,58.6415,27.488,58.6415,29.7721z"/>
			</g>
			<g>
				<path class="st17" d="M163.2514,54.8843c-2.5068-1.5439-5.3184-2.3262-8.3555-2.3262c-3.0381,0-5.8506,0.79-8.3584,2.3477
					c-2.0732,1.2891-3.7988,2.9541-5.1377,4.9561c-1.3438-2.0039-3.083-3.6699-5.1768-4.958
					c-2.5312-1.5566-5.3555-2.3457-8.3926-2.3457c-2.6934,0-5.21,0.6416-7.4805,1.9082c-1.498,0.8359-2.8359,1.8799-3.9902,3.1094
					v-3.8994h-7.1152v41.6826h7.1152V71.0034c0-1.9678,0.4668-3.8154,1.3857-5.4893c0.9238-1.6748,2.1826-3.042,3.7393-4.0635
					c1.5371-1.0039,3.2461-1.5137,5.0801-1.5137c1.8701,0,3.6006,0.4746,5.1426,1.4092c1.5498,0.9443,2.7998,2.2598,3.7148,3.9102
					c0.9199,1.6572,1.3857,3.5908,1.3857,5.7471v24.3555h7.1162V71.0034c0-2.1572,0.4658-4.0908,1.3848-5.7461
					s2.1631-2.9717,3.6973-3.9111c1.5293-0.9355,3.252-1.4092,5.123-1.4092c1.8594,0,3.5742,0.5088,5.0947,1.5117
					c1.5479,1.0215,2.8008,2.3896,3.7236,4.0654c0.9199,1.6738,1.3867,3.5205,1.3867,5.4893v24.3555h7.1143V69.7651
					c0-3.1455-0.7471-6.0586-2.2217-8.6572C167.7572,58.5161,165.7465,56.4223,163.2514,54.8843z"/>
				<path class="st17" d="M303.4591,59.0356c-1.1982-1.5225-2.6191-2.8359-4.2373-3.915c-2.5117-1.6738-5.4873-2.5225-8.8418-2.5225
					c-2.8711,0-5.6035,0.5693-8.1211,1.6924c-2.5068,1.1211-4.7402,2.6982-6.6396,4.6885
					c-1.8945,1.9873-3.3975,4.3232-4.4688,6.9414c-1.0742,2.624-1.6182,5.4629-1.6182,8.4375c0,3.0303,0.5508,5.9102,1.6367,8.5576
					c1.085,2.6465,2.6162,5.0088,4.5488,7.0225c1.9346,2.0156,4.2051,3.6191,6.75,4.7646c2.5566,1.1514,5.335,1.7344,8.2568,1.7344
					c3.2822,0,6.1582-0.8379,8.5488-2.4912c1.5303-1.0605,2.8574-2.3535,3.957-3.8525l0.1367,5.3057h7.0938V53.7163h-7.1387
					L303.4591,59.0356z M302.923,74.5571c0,2.71-0.5088,5.2236-1.5127,7.4697c-0.9932,2.2139-2.4238,3.9961-4.252,5.2959
					c-1.8096,1.2832-4.0127,1.9346-6.5479,1.9346c-2.4561,0-4.7588-0.6543-6.8447-1.9463c-2.1016-1.2998-3.8125-3.084-5.0879-5.3018
					c-1.2705-2.2119-1.915-4.7197-1.915-7.4521c0-2.71,0.627-5.2139,1.8643-7.4424c1.2373-2.2275,2.9297-4.0225,5.0273-5.334
					c2.085-1.3027,4.4248-1.9629,6.9561-1.9629c2.5127,0,4.7031,0.6455,6.5117,1.918c1.8291,1.2861,3.2656,3.0537,4.2705,5.2559
					C302.4084,69.2231,302.923,71.768,302.923,74.5571z"/>
				<path class="st17" d="M412.1642,59.0356c-1.1982-1.5225-2.6191-2.8359-4.2373-3.915c-2.5117-1.6738-5.4873-2.5225-8.8428-2.5225
					c-2.8701,0-5.6025,0.5693-8.1201,1.6924c-2.5059,1.1201-4.7402,2.6973-6.6396,4.6885
					c-1.8926,1.9854-3.3965,4.3203-4.4697,6.9414c-1.0742,2.624-1.6182,5.4629-1.6182,8.4375c0,3.0303,0.5508,5.9102,1.6367,8.5576
					c1.0869,2.6484,2.6182,5.0117,4.5498,7.0225c1.9346,2.0156,4.2051,3.6191,6.75,4.7646c2.5557,1.1514,5.334,1.7344,8.2568,1.7344
					c3.2822,0,6.1582-0.8379,8.5488-2.4912c1.5293-1.0605,2.8564-2.3525,3.9561-3.8525l0.1377,5.3057h7.0928V53.7163h-7.1377
					L412.1642,59.0356z M411.6281,74.5571c0,2.709-0.5098,5.2227-1.5137,7.4697c-0.9912,2.2129-2.4219,3.9941-4.251,5.2959
					c-1.8096,1.2832-4.0127,1.9346-6.5488,1.9346c-2.4561,0-4.7588-0.6543-6.8438-1.9463c-2.1016-1.2998-3.8125-3.084-5.0879-5.3018
					c-1.2715-2.2119-1.916-4.7188-1.916-7.4521c0-2.7109,0.6279-5.2148,1.8652-7.4424s2.9287-4.0225,5.0264-5.334
					c2.0859-1.3027,4.4258-1.9629,6.9561-1.9629c2.5137,0,4.7041,0.6455,6.5127,1.918c1.8301,1.2861,3.2666,3.0547,4.2695,5.2559
					C411.1125,69.2241,411.6281,71.77,411.6281,74.5571z"/>
				<polygon class="st17" points="360.2423,82.8852 350.8498,53.686 342.3078,53.686 332.9015,82.9292 324.3927,53.686 
					316.9982,53.686 328.9396,94.729 329.1242,95.3589 336.3605,95.3589 346.5793,63.5942 356.713,95.0991 356.797,95.3589 
					364.007,95.3589 376.132,53.686 368.7384,53.686 				"/>
				<path class="st17" d="M468.2043,88.5053c-2.2129,0-4.1172-0.7871-5.6572-2.3398c-1.5469-1.5596-2.3311-3.582-2.3311-6.0117
					v-19.748h1.7832h10.5078v-6.7295h-10.5078h-1.7832V42.1675h-7.1387v11.5088h-17.3457V42.1675h-7.1387v37.9863
					c0,4.4062,1.4971,8.0908,4.4512,10.9512c2.9316,2.8428,6.5234,4.2842,10.6758,4.2842h2.377v-6.8838h-2.377
					c-2.2139,0-4.1182-0.7871-5.6572-2.3398c-1.5469-1.5596-2.3311-3.582-2.3311-6.0117v-19.748h17.3457v19.748
					c0,4.4062,1.4971,8.0908,4.4512,10.9512c2.9326,2.8428,6.5244,4.2842,10.6758,4.2842h4.377v-6.8838H468.2043z"/>
				<path class="st17" d="M243.0898,53.6538L243.0898,53.6538c-10.873,0-19.7197,8.7979-19.7197,19.6123
					c0,5.5771,2.4492,10.8887,6.7354,14.6455c-0.9941,0.7852-1.7783,1.6064-2.3877,2.498
					c-1.1768,1.6611-1.7734,3.4463-1.7725,5.2988c-0.0469,1.958,0.5361,3.7871,1.7295,5.4316
					c2.8906,4.0527,8.2578,6.1084,15.9473,6.1084c1.9092,0.0596,4.3018,0.2246,6.2441,0.4297
					c0.9688,0.1016,1.7227,0.2715,2.374,0.5332c3.1025,1.2451,5.1875,4.1211,5.1875,7.1572v3.3604h6.9199v-3.3604
					c0-5.9736-4.1367-11.5811-10.0938-13.7344l0.001-0.0049l-0.2549-0.1006c-0.0947-0.0361-0.2002-0.0693-0.3066-0.1016
					l-0.1934-0.0596c-2.5479-0.8281-6.541-1.041-9.7461-1.1348c-5.4141,0-8.9277-1.0723-10.4443-3.1885
					c-0.2959-0.4102-0.4453-0.7998-0.4463-1.1465c0.0146-0.4844,0.1846-0.9531,0.5166-1.4326
					c0.7744-1.1123,2.0557-1.9795,3.8096-2.5771c2.1113,0.666,4.042,0.9893,5.9004,0.9893c10.873,0,19.7197-8.7979,19.7197-19.6113
					c0-4.7354-1.7275-9.2695-4.8828-12.8604h10.5039v-6.7295L243.0898,53.6538z M243.0898,85.9468
					c-7.0518,0-12.7891-5.6885-12.7891-12.6807s5.7373-12.6807,12.7891-12.6807s12.7891,5.6885,12.7891,12.6807
					S250.1415,85.9468,243.0898,85.9468z"/>
				<path class="st17" d="M217.2652,76.6272l0.0205-0.3677c0.2788-5.0596-0.2739-9.395-1.6421-12.8867
					c-1.3794-3.5156-3.522-6.2266-6.3677-8.0601c-2.8428-1.8281-6.3574-2.7544-10.4468-2.7544
					c-3.8696,0-7.3965,0.9678-10.4829,2.875c-3.084,1.9062-5.5435,4.5498-7.3091,7.8564
					c-1.7627,3.3022-2.6562,7.1006-2.6562,11.2905c0,4.1929,0.9224,7.979,2.7412,11.2534c1.8223,3.2808,4.3379,5.8955,7.4766,7.7725
					c3.1387,1.8779,6.7207,2.8311,10.6436,2.8311c3.2515,0,6.1694-0.6416,8.6714-1.9067c2.5054-1.2666,4.561-3.0088,6.1094-5.1777
					c1.271-1.7783,2.1602-3.791,2.6943-5.9785h-7.2808c-0.7471,1.5649-1.8374,2.8892-3.2578,3.9487
					c-1.8809,1.4062-4.2153,2.1191-6.9365,2.1191c-2.4624,0-4.6841-0.5547-6.6035-1.6479c-1.9229-1.0947-3.4927-2.6514-4.666-4.627
					c-1.1182-1.8789-1.8359-4.0771-2.1367-6.54H217.2652z M190.711,62.4436c2.2378-1.9185,5.0522-2.8916,8.3652-2.8916
					c2.7617,0,5.1992,0.9155,7.2441,2.7212c1.957,1.728,3.0874,4.2861,3.3628,7.6074h-23.375
					C187.0928,66.7741,188.5723,64.2741,190.711,62.4436z"/>
			</g>
		</g>
	</g>
</g>
<g id="Warstwa_2">
</g>
</svg>
